<svg width="204" height="32" viewBox="0 0 204 32" fill="none" xmlns="http://www.w3.org/2000/svg">
<path d="M66.9086 7.48242H63.3473V25.8062H66.9086V7.48242Z" fill="#2A3362"/>
<path d="M80.6919 19.3048C80.6919 21.8337 79.0648 22.97 76.8984 22.97C74.732 22.97 73.2841 21.8337 73.2841 19.433V12.9028H69.7228V20.2598C69.7228 23.9228 72.0196 26.0648 75.8396 26.0648C78.2403 26.0648 79.5821 25.1806 80.4819 24.1814H80.6897L80.9991 25.8084H84.2753V12.9028H80.6919V19.3048Z" fill="#2A3362"/>
<path d="M115.626 23.2528C113.02 23.2528 111.55 22.0657 111.318 20.337H122.621C122.673 19.9775 122.699 19.6148 122.698 19.2516C122.674 14.6093 119.161 12.644 115.403 12.644C111.041 12.644 107.763 15.2526 107.763 19.4594C107.763 23.4584 110.913 26.0647 115.635 26.0647C119.585 26.0647 122.216 24.3117 122.76 21.6258H119.241C118.801 22.6847 117.536 23.2528 115.626 23.2528ZM115.405 15.4582C117.678 15.4582 118.993 16.464 119.201 17.8898H111.395C111.729 16.5237 113.046 15.4582 115.394 15.4582H115.405Z" fill="#2A3362"/>
<path d="M128.748 14.7556H128.527L128.191 12.8965H124.955V25.8087H128.516V20.26C128.516 17.7554 129.96 16.3627 132.646 16.3627C133.134 16.356 133.621 16.3989 134.1 16.4909V12.9031H133.603C131.229 12.9031 129.754 13.3939 128.748 14.7556Z" fill="#2A3362"/>
<path d="M151.586 21.7807H151.381L148.335 13.7031H144.669L141.676 21.7563H141.444L138.606 12.9028H135.069L139.43 25.8084H143.303L146.4 17.5739H146.606L149.652 25.8084H153.549L157.911 12.9028H154.374L151.586 21.7807Z" fill="#2A3362"/>
<path d="M172.085 22.0504V17.7309C172.085 14.2204 169.117 12.6465 165.425 12.6465C161.503 12.6465 159.052 14.5056 158.716 17.2888H162.277C162.536 16.0752 163.568 15.4053 165.425 15.4053C167.282 15.4053 168.52 16.1017 168.52 17.5209V17.8503L162.712 18.2924C160.029 18.5002 158.07 19.6873 158.07 22.2162C158.07 24.8226 160.316 26.0605 163.619 26.0605C166.285 26.0605 167.91 25.3177 168.904 24.197H169.081C169.64 25.457 170.774 25.8041 172.008 25.8041H173.505V23.1757H173.169C172.419 23.1757 172.085 22.8153 172.085 22.0504ZM168.522 20.6821C168.522 22.7225 166.09 23.3923 164.006 23.3923C162.586 23.3923 161.658 23.032 161.658 22.0504C161.658 21.1662 162.458 20.7351 163.647 20.6312L168.524 20.2709L168.522 20.6821Z" fill="#2A3362"/>
<path d="M185.252 12.9028L181.096 22.2471H180.864L176.657 12.9028H172.81L178.823 25.8084H183.083L189.07 12.9028H185.252Z" fill="#2A3362"/>
<path d="M200.454 21.6258C200.012 22.6847 198.75 23.2528 196.84 23.2528C194.234 23.2528 192.763 22.0657 192.531 20.337H203.834C203.886 19.9775 203.912 19.6148 203.912 19.2516C203.887 14.6093 200.375 12.644 196.617 12.644C192.255 12.644 188.979 15.2526 188.979 19.4594C188.979 23.4584 192.127 26.0647 196.849 26.0647C200.799 26.0647 203.43 24.3117 203.973 21.6258H200.454ZM196.608 15.4582C198.88 15.4582 200.196 16.464 200.403 17.8898H192.6C192.938 16.5237 194.251 15.4582 196.599 15.4582H196.608Z" fill="#2A3362"/>
<path d="M57.56 11.9523C57.56 10.816 58.3602 10.3275 59.3926 10.3275C59.8728 10.3319 60.3501 10.4011 60.8118 10.533L61.4065 7.95105C60.5444 7.64622 59.6371 7.48927 58.7228 7.48682C56.0899 7.48682 53.9744 8.88171 53.9744 11.771V12.9028H50.9016V15.7302H53.9744V25.8084H57.56V15.728H61.5745V12.9028H57.56V11.9523Z" fill="#2A3362"/>
<path d="M92.134 9.26416H88.8181L88.6324 12.9028H85.8293V15.7302H88.5661V22.0924C88.5661 24.2588 89.6714 26.0715 92.9873 26.0715C93.847 26.0715 94.704 25.9766 95.5428 25.7885V23.0717C95.0591 23.1801 94.566 23.2408 94.0705 23.2529C92.291 23.2529 92.1362 22.2471 92.1362 21.4712V15.7236H95.6732V12.9028H92.134V9.26416Z" fill="#2A3362"/>
<path d="M103.317 9.26416H100.013L99.8269 12.9028H97.0172V15.7302H99.754V22.0924C99.754 24.2588 100.859 26.0715 104.175 26.0715C105.033 26.0688 105.888 25.9717 106.724 25.7819V23.0717C106.24 23.1801 105.747 23.2408 105.252 23.2529C103.472 23.2529 103.317 22.2471 103.317 21.4712V15.7236H106.866V12.9028H103.317V9.26416Z" fill="#2A3362"/>
<path d="M1.32849 6.99376C1.32849 4.92241 1.9342 3.15392 3.20531 1.88281L5.41592 4.09343C2.95551 6.545 5.10422 14.1672 12.1097 21.1793C19.1151 28.1914 26.7417 30.3379 29.1999 27.8819L31.4106 30.0925C27.2634 34.2396 17.8175 31.2973 9.91011 23.3877C4.42557 17.9009 1.32849 11.6758 1.32849 6.99376Z" fill="#009A46"/>
<path d="M15.2687 31.9984C13.1973 31.9984 11.4288 31.3927 10.1555 30.1216L12.3661 27.9109C14.8221 30.3669 22.4443 28.2182 29.4564 21.2084C36.4685 14.1985 38.6128 6.57628 36.1568 4.12028L38.3674 1.90967C42.5167 6.05678 39.5722 15.5027 31.6626 23.4101C26.1759 28.9035 19.9508 31.9984 15.2687 31.9984Z" fill="#FF5805"/>
<path d="M32.3943 20.2466C31.0525 16.3825 28.3113 12.253 24.6748 8.61878C16.7675 0.709195 7.3215 -2.23535 3.17438 1.91398C2.88037 2.2102 3.13459 2.94192 3.74472 3.55205C4.35485 4.16218 5.08656 4.41419 5.38057 4.12018C7.83878 1.66418 15.461 3.8129 22.4708 10.825C25.7868 14.1409 28.2582 17.8437 29.4498 21.2701C30.4932 24.2744 30.3915 26.6972 29.1756 27.913C28.8794 28.2071 29.1359 28.941 29.7438 29.5489C30.3517 30.1568 31.0856 30.4133 31.3818 30.117C33.5062 27.9926 33.8666 24.4822 32.3943 20.2466Z" fill="#F5AFCB"/>
<path d="M38.363 1.91406C36.2341 -0.214768 32.7281 -0.575098 28.4881 0.899383C24.6262 2.23902 20.4945 4.98239 16.8603 8.61665C8.95292 16.524 6.00838 25.97 10.1555 30.1193C10.4517 30.4133 11.1834 30.1591 11.7936 29.5512C12.4037 28.9433 12.6579 28.2093 12.3617 27.9131C9.89906 25.4571 12.0544 17.8349 19.0665 10.8228C22.3824 7.50692 26.0852 5.03545 29.5117 3.84392C32.5159 2.80272 34.9387 2.9022 36.1568 4.11804C36.4508 4.41205 37.1847 4.15783 37.7926 3.5477C38.4005 2.93757 38.657 2.20807 38.363 1.91406Z" fill="#FF9B00"/>
</svg>
