<svg width="32" height="32" viewBox="0 0 32 32" fill="none" xmlns="http://www.w3.org/2000/svg">
<g clip-path="url(#clip0_225_711)">
<path d="M0 0H32V32H0V0Z" fill="#C7001D"/>
<path d="M17.0317 24.2769C17.0317 24.3208 17.0368 24.362 17.0471 24.4004C17.0583 24.4378 17.0742 24.4706 17.0948 24.4986C17.1154 24.5258 17.1411 24.5473 17.172 24.5632C17.2029 24.5791 17.238 24.5871 17.2773 24.5871C17.3109 24.5874 17.3443 24.5812 17.3755 24.5688C17.4054 24.5557 17.4317 24.537 17.4541 24.5127C17.4766 24.4884 17.4939 24.4589 17.5061 24.4242C17.5191 24.3887 17.5257 24.348 17.5257 24.3021C17.5278 24.2593 17.5241 24.2163 17.5145 24.1744C17.5051 24.1342 17.4902 24.0991 17.4696 24.0692C17.4492 24.0394 17.4217 24.0153 17.3896 23.999C17.3577 23.9812 17.3203 23.9723 17.2773 23.9723C17.2411 23.9718 17.2053 23.9805 17.1734 23.9976C17.1432 24.0137 17.1169 24.0362 17.0962 24.0635C17.0746 24.0927 17.0585 24.1255 17.0485 24.1604C17.0373 24.1969 17.0317 24.2357 17.0317 24.2769ZM17.0317 24.6432H16.9475V23.6327H17.0317V24.0327C17.0588 23.9878 17.0958 23.9541 17.1425 23.9316C17.1888 23.9086 17.2397 23.8966 17.2913 23.8965C17.3465 23.8965 17.3942 23.9073 17.4345 23.9288C17.4744 23.9484 17.5091 23.9773 17.5355 24.013C17.5635 24.0493 17.584 24.0908 17.5959 24.1351C17.609 24.1819 17.6155 24.2306 17.6155 24.2811C17.6155 24.3344 17.6095 24.3845 17.5973 24.4313C17.5851 24.478 17.5654 24.5187 17.5383 24.5534C17.5114 24.5876 17.4768 24.615 17.4373 24.6334C17.3961 24.653 17.3461 24.6628 17.2871 24.6628C17.2637 24.6628 17.2398 24.6596 17.2155 24.653C17.1907 24.6463 17.1667 24.6369 17.1439 24.625C17.1212 24.6126 17.1 24.5975 17.0808 24.58C17.062 24.5612 17.0463 24.5394 17.0345 24.5155H17.0317V24.6432ZM17.79 24.8411L17.8237 24.8467C17.8359 24.8486 17.848 24.8495 17.8602 24.8495C17.8836 24.8495 17.9027 24.842 17.9177 24.8271C17.9327 24.8121 17.9448 24.7938 17.9542 24.7723C17.9647 24.7512 17.9732 24.7291 17.9795 24.7064C17.9861 24.6839 17.9935 24.6647 18.0019 24.6488L17.7198 23.9162H17.8139L18.0469 24.5407L18.2798 23.9162H18.3711L18.1002 24.6334C18.0833 24.6792 18.067 24.7204 18.0511 24.7569C18.0361 24.7934 18.0197 24.8242 18.0019 24.8495C17.9851 24.8757 17.9659 24.8954 17.9444 24.9085C17.9238 24.9225 17.899 24.9295 17.87 24.9295C17.855 24.9295 17.8405 24.9286 17.8265 24.9267C17.8142 24.925 17.802 24.9227 17.79 24.9197V24.8411ZM19.6936 24.5085H19.6964L19.9168 23.6327H20.015L19.7498 24.6432H19.6445L19.4101 23.7506H19.4073L19.1729 24.6432H19.0677L18.8066 23.6327H18.902L19.1196 24.5085H19.1224L19.3568 23.6327H19.4634L19.6936 24.5085ZM20.1479 24.6432V23.6327H20.8202V23.7141H20.2433V24.079H20.764V24.1604H20.2433V24.5618H20.8342V24.6432H20.1479ZM21.0017 24.6432V23.6327H21.1477L21.4789 24.5239H21.4817L21.8073 23.6327H21.9519V24.6432H21.8564V23.7421H21.8536L21.5224 24.6432H21.4326L21.0999 23.7421H21.0971V24.6432H21.0017ZM22.0824 24.6432L22.4796 23.6327H22.5877L22.975 24.6432H22.8768L22.7603 24.326H22.2999L22.1806 24.6432H22.0824ZM22.3322 24.2446H22.728L22.5301 23.7141L22.3322 24.2446ZM10.8383 22.0804H9.8832L9.73707 22.3976H9.03863V22.3067L10.2111 19.8175H10.5175L11.6774 22.3067V22.3976H10.9879L10.8383 22.0804ZM10.3607 20.9044L10.097 21.521H10.6262L10.3607 20.9044ZM13.9942 19.8425V21.7989H14.919V22.3976H13.3278V19.8425H13.9942ZM18.4714 22.0804H17.5164L17.3703 22.3976H16.6719V22.3067L17.8443 19.8175H18.1508L19.3107 22.3067V22.3976H18.6211L18.4714 22.0804ZM17.994 20.9044L17.7302 21.521H18.2595L17.994 20.9044ZM21.6092 20.4269H20.982V19.8425H22.8796V20.4269H22.256V22.3976H21.6092V20.4269ZM7.80354 18.0772H16.2823C16.4492 18.0772 16.5578 17.9015 16.4832 17.7522L16.3088 17.4035L15.9439 16.7579L15.9251 16.7266C15.9051 16.6933 15.8769 16.6658 15.8432 16.6467C15.8094 16.6276 15.7713 16.6175 15.7325 16.6175H10.3578C10.1841 16.6175 10.0762 16.4287 10.1644 16.279L13.6745 10.3192C13.7611 10.1723 13.9734 10.1716 14.0608 10.318L18.6294 17.9678C18.6493 18.0011 18.6776 18.0287 18.7114 18.0479C18.7452 18.0671 18.7834 18.0772 18.8222 18.0772H24.0321C24.2049 18.0772 24.313 17.89 24.2266 17.7403L18.0017 6.9614C17.982 6.92726 17.9537 6.89892 17.9195 6.87921C17.8854 6.8595 17.8467 6.84912 17.8072 6.84912H16.6911C16.5197 6.84912 16.4115 7.03332 16.495 7.18304L21.5683 16.2836C21.6517 16.4333 21.5435 16.6175 21.3722 16.6175H19.694C19.6547 16.6175 19.6161 16.6073 19.5821 16.5877C19.548 16.5681 19.5197 16.54 19.5 16.506L14.1001 7.24132C14.0803 7.20739 14.052 7.17924 14.018 7.15967C13.9839 7.14011 13.9454 7.12982 13.9061 7.12982H13.8835C13.8443 7.12982 13.8057 7.14013 13.7716 7.15972C13.7375 7.1793 13.7092 7.20748 13.6895 7.24143L7.60946 17.688C7.58949 17.7223 7.57897 17.7612 7.57898 17.8009V17.8526C7.57898 17.9122 7.60264 17.9693 7.64475 18.0114C7.68687 18.0535 7.74398 18.0772 7.80354 18.0772Z" fill="white"/>
</g>
<defs>
<clipPath id="clip0_225_711">
<rect width="32" height="32" fill="white"/>
</clipPath>
</defs>
</svg>
