<svg width="99" height="50" viewBox="0 0 99 50" fill="none" xmlns="http://www.w3.org/2000/svg">
<path d="M1.66675 1C17.2637 2.29974 18.2296 33.4164 33.6667 37C46.3966 39.9551 52.8426 23.1804 65.6667 25C79.5765 26.9737 84.0276 44.4536 97.6667 49H1.66675V1Z" fill="#FEF3F2"/>
<path d="M1.66675 1C17.2637 2.29974 18.2296 33.4164 33.6667 37C46.3966 39.9551 52.8426 23.1804 65.6667 25C79.5765 26.9737 84.0276 44.4536 97.6667 49H1.66675V1Z" fill="url(#paint0_linear_219_7709)"/>
<path d="M97.6667 49C84.0276 44.4536 79.5765 26.9737 65.6667 25C52.8426 23.1804 46.3966 39.9551 33.6667 37C18.2296 33.4164 17.2637 2.29974 1.66675 1" stroke="#F04438" stroke-width="1.5" stroke-linecap="round" stroke-linejoin="round"/>
<defs>
<linearGradient id="paint0_linear_219_7709" x1="49.6667" y1="1" x2="49.6667" y2="49" gradientUnits="userSpaceOnUse">
<stop offset="0.641167" stop-color="white" stop-opacity="0"/>
<stop offset="1" stop-color="white"/>
</linearGradient>
</defs>
</svg>
