<svg width="40" height="40" viewBox="0 0 40 40" fill="none" xmlns="http://www.w3.org/2000/svg">
<path d="M35.8442 0H2.07791C0.935033 0 0 0.952359 0 2.11641V5.92591C0 7.08997 0.935033 8.04233 2.07791 8.04233H35.7403C36.8831 8.04233 37.8182 7.08997 37.8182 5.92591V2.11641C37.9221 0.952359 36.987 0 35.8442 0ZM35.8442 21.2698H2.07791C0.935033 21.2698 0 22.2222 0 23.3862V27.1957C0 28.3598 0.935033 29.3122 2.07791 29.3122H35.7403C36.8831 29.3122 37.8182 28.3598 37.8182 27.1957V23.3862C37.9221 22.2222 36.987 21.2698 35.8442 21.2698ZM21.0909 31.9577H2.07791C0.935033 31.9577 0 32.91 0 34.0741V37.8836C0 39.0476 0.935033 40 2.07791 40H21.0909C22.2338 40 23.1688 39.0476 23.1688 37.8836V34.0741C23.1688 32.91 22.2338 31.9577 21.0909 31.9577ZM37.9221 10.6878H2.07791C0.935033 10.6878 0 11.6402 0 12.8042V16.6138C0 17.7777 0.935033 18.7302 2.07791 18.7302H37.9221C39.065 18.7302 40 17.7777 40 16.6138V12.8042C40 11.6402 39.065 10.6878 37.9221 10.6878Z" fill="#0BA4DB"/>
</svg>
