<svg width="33" height="32" viewBox="0 0 33 32" fill="none" xmlns="http://www.w3.org/2000/svg">
<mask id="mask0_222_4455" style="mask-type:luminance" maskUnits="userSpaceOnUse" x="0" y="0" width="33" height="32">
<path d="M0 0H32.5316V32H0V0Z" fill="white"/>
</mask>
<g mask="url(#mask0_222_4455)">
<path d="M29.1517 0H1.68994C0.760452 0 0 0.761887 0 1.69313V4.74073C0 5.67197 0.760452 6.43386 1.68994 6.43386H29.0672C29.9967 6.43386 30.7571 5.67197 30.7571 4.74073V1.69313C30.8416 0.761887 30.0811 0 29.1517 0ZM29.1517 17.0159H1.68994C0.760452 17.0159 0 17.7778 0 18.709V21.7566C0 22.6878 0.760452 23.4497 1.68994 23.4497H29.0672C29.9967 23.4497 30.7571 22.6878 30.7571 21.7566V18.709C30.8416 17.7778 30.0811 17.0159 29.1517 17.0159ZM17.153 25.5661H1.68994C0.760452 25.5661 0 26.328 0 27.2593V30.3069C0 31.2381 0.760452 32 1.68994 32H17.153C18.0825 32 18.843 31.2381 18.843 30.3069V27.2593C18.843 26.328 18.0825 25.5661 17.153 25.5661ZM30.8416 8.55027H1.68994C0.760452 8.55027 0 9.31216 0 10.2433V13.291C0 14.2222 0.760452 14.9841 1.68994 14.9841H30.8416C31.7711 14.9841 32.5316 14.2222 32.5316 13.291V10.2433C32.5316 9.31216 31.7711 8.55027 30.8416 8.55027Z" fill="#0BA4DB"/>
</g>
</svg>
